<mxfile host="app.diagrams.net" modified="2024-04-15T07:51:58.373Z" agent="Mozilla/5.0 (Windows NT 10.0; Win64; x64) AppleWebKit/537.36 (KHTML, like Gecko) Chrome/123.0.0.0 Safari/537.36" etag="H562lXWO5SJwn8Ohd4NV" version="24.2.5" type="github">
  <diagram name="Page-1" id="tklO7xK3QUPXGctvpzQr">
    <mxGraphModel dx="1522" dy="1680" grid="1" gridSize="10" guides="1" tooltips="1" connect="1" arrows="1" fold="1" page="1" pageScale="1" pageWidth="827" pageHeight="1169" math="0" shadow="0">
      <root>
        <mxCell id="0" />
        <mxCell id="1" parent="0" />
        <mxCell id="FDrHorXSiLE-RwHZ9RLK-5" value="A:Admin" style="swimlane;fontStyle=1;align=center;verticalAlign=top;childLayout=stackLayout;horizontal=1;startSize=26;horizontalStack=0;resizeParent=1;resizeParentMax=0;resizeLast=0;collapsible=1;marginBottom=0;whiteSpace=wrap;html=1;" parent="1" vertex="1">
          <mxGeometry x="1930" y="390" width="200" height="156" as="geometry">
            <mxRectangle x="10" y="10" width="70" height="30" as="alternateBounds" />
          </mxGeometry>
        </mxCell>
        <mxCell id="FDrHorXSiLE-RwHZ9RLK-6" value="id = 65b3bc9904d13b15583b5447" style="text;strokeColor=none;fillColor=none;align=left;verticalAlign=top;spacingLeft=4;spacingRight=4;overflow=hidden;rotatable=0;points=[[0,0.5],[1,0.5]];portConstraint=eastwest;whiteSpace=wrap;html=1;" parent="FDrHorXSiLE-RwHZ9RLK-5" vertex="1">
          <mxGeometry y="26" width="200" height="26" as="geometry" />
        </mxCell>
        <mxCell id="FDrHorXSiLE-RwHZ9RLK-11" value="name =&amp;nbsp;test admin" style="text;strokeColor=none;fillColor=none;align=left;verticalAlign=top;spacingLeft=4;spacingRight=4;overflow=hidden;rotatable=0;points=[[0,0.5],[1,0.5]];portConstraint=eastwest;whiteSpace=wrap;html=1;" parent="FDrHorXSiLE-RwHZ9RLK-5" vertex="1">
          <mxGeometry y="52" width="200" height="26" as="geometry" />
        </mxCell>
        <mxCell id="FDrHorXSiLE-RwHZ9RLK-133" value="email =&amp;nbsp;test-admin@gmail.com" style="text;strokeColor=none;fillColor=none;align=left;verticalAlign=top;spacingLeft=4;spacingRight=4;overflow=hidden;rotatable=0;points=[[0,0.5],[1,0.5]];portConstraint=eastwest;whiteSpace=wrap;html=1;" parent="FDrHorXSiLE-RwHZ9RLK-5" vertex="1">
          <mxGeometry y="78" width="200" height="26" as="geometry" />
        </mxCell>
        <mxCell id="FDrHorXSiLE-RwHZ9RLK-10" value="phone = 1234567890" style="text;strokeColor=none;fillColor=none;align=left;verticalAlign=top;spacingLeft=4;spacingRight=4;overflow=hidden;rotatable=0;points=[[0,0.5],[1,0.5]];portConstraint=eastwest;whiteSpace=wrap;html=1;" parent="FDrHorXSiLE-RwHZ9RLK-5" vertex="1">
          <mxGeometry y="104" width="200" height="26" as="geometry" />
        </mxCell>
        <mxCell id="FDrHorXSiLE-RwHZ9RLK-9" value="password =&amp;nbsp;1234" style="text;strokeColor=none;fillColor=none;align=left;verticalAlign=top;spacingLeft=4;spacingRight=4;overflow=hidden;rotatable=0;points=[[0,0.5],[1,0.5]];portConstraint=eastwest;whiteSpace=wrap;html=1;" parent="FDrHorXSiLE-RwHZ9RLK-5" vertex="1">
          <mxGeometry y="130" width="200" height="26" as="geometry" />
        </mxCell>
        <mxCell id="FDrHorXSiLE-RwHZ9RLK-13" value="Air_quality" style="swimlane;fontStyle=1;align=center;verticalAlign=top;childLayout=stackLayout;horizontal=1;startSize=26;horizontalStack=0;resizeParent=1;resizeParentMax=0;resizeLast=0;collapsible=1;marginBottom=0;whiteSpace=wrap;html=1;" parent="1" vertex="1">
          <mxGeometry x="2330" y="400" width="210" height="312" as="geometry" />
        </mxCell>
        <mxCell id="FDrHorXSiLE-RwHZ9RLK-14" value="id =&amp;nbsp;65bd34d5621fee2b7886f2c0" style="text;strokeColor=none;fillColor=none;align=left;verticalAlign=top;spacingLeft=4;spacingRight=4;overflow=hidden;rotatable=0;points=[[0,0.5],[1,0.5]];portConstraint=eastwest;whiteSpace=wrap;html=1;" parent="FDrHorXSiLE-RwHZ9RLK-13" vertex="1">
          <mxGeometry y="26" width="210" height="26" as="geometry" />
        </mxCell>
        <mxCell id="FDrHorXSiLE-RwHZ9RLK-15" value="timestamp =&amp;nbsp;2024-02-03 00:00:45" style="text;strokeColor=none;fillColor=none;align=left;verticalAlign=top;spacingLeft=4;spacingRight=4;overflow=hidden;rotatable=0;points=[[0,0.5],[1,0.5]];portConstraint=eastwest;whiteSpace=wrap;html=1;" parent="FDrHorXSiLE-RwHZ9RLK-13" vertex="1">
          <mxGeometry y="52" width="210" height="26" as="geometry" />
        </mxCell>
        <mxCell id="FDrHorXSiLE-RwHZ9RLK-21" value="location =&amp;nbsp;Galle" style="text;strokeColor=none;fillColor=none;align=left;verticalAlign=top;spacingLeft=4;spacingRight=4;overflow=hidden;rotatable=0;points=[[0,0.5],[1,0.5]];portConstraint=eastwest;whiteSpace=wrap;html=1;" parent="FDrHorXSiLE-RwHZ9RLK-13" vertex="1">
          <mxGeometry y="78" width="210" height="26" as="geometry" />
        </mxCell>
        <mxCell id="FDrHorXSiLE-RwHZ9RLK-25" value="pm25 =&amp;nbsp;25.423995609441043" style="text;strokeColor=none;fillColor=none;align=left;verticalAlign=top;spacingLeft=4;spacingRight=4;overflow=hidden;rotatable=0;points=[[0,0.5],[1,0.5]];portConstraint=eastwest;whiteSpace=wrap;html=1;" parent="FDrHorXSiLE-RwHZ9RLK-13" vertex="1">
          <mxGeometry y="104" width="210" height="26" as="geometry" />
        </mxCell>
        <mxCell id="FDrHorXSiLE-RwHZ9RLK-24" value="pm10 =&amp;nbsp;28.88745103479222" style="text;strokeColor=none;fillColor=none;align=left;verticalAlign=top;spacingLeft=4;spacingRight=4;overflow=hidden;rotatable=0;points=[[0,0.5],[1,0.5]];portConstraint=eastwest;whiteSpace=wrap;html=1;" parent="FDrHorXSiLE-RwHZ9RLK-13" vertex="1">
          <mxGeometry y="130" width="210" height="26" as="geometry" />
        </mxCell>
        <mxCell id="FDrHorXSiLE-RwHZ9RLK-23" value="co2 =&amp;nbsp;27.78897098544018" style="text;strokeColor=none;fillColor=none;align=left;verticalAlign=top;spacingLeft=4;spacingRight=4;overflow=hidden;rotatable=0;points=[[0,0.5],[1,0.5]];portConstraint=eastwest;whiteSpace=wrap;html=1;" parent="FDrHorXSiLE-RwHZ9RLK-13" vertex="1">
          <mxGeometry y="156" width="210" height="26" as="geometry" />
        </mxCell>
        <mxCell id="FDrHorXSiLE-RwHZ9RLK-22" value="ozone =&amp;nbsp;27.474459115421126" style="text;strokeColor=none;fillColor=none;align=left;verticalAlign=top;spacingLeft=4;spacingRight=4;overflow=hidden;rotatable=0;points=[[0,0.5],[1,0.5]];portConstraint=eastwest;whiteSpace=wrap;html=1;" parent="FDrHorXSiLE-RwHZ9RLK-13" vertex="1">
          <mxGeometry y="182" width="210" height="26" as="geometry" />
        </mxCell>
        <mxCell id="FDrHorXSiLE-RwHZ9RLK-16" value="no2 =&amp;nbsp;21.185582605200896" style="text;strokeColor=none;fillColor=none;align=left;verticalAlign=top;spacingLeft=4;spacingRight=4;overflow=hidden;rotatable=0;points=[[0,0.5],[1,0.5]];portConstraint=eastwest;whiteSpace=wrap;html=1;" parent="FDrHorXSiLE-RwHZ9RLK-13" vertex="1">
          <mxGeometry y="208" width="210" height="26" as="geometry" />
        </mxCell>
        <mxCell id="FDrHorXSiLE-RwHZ9RLK-17" value="temperature =&amp;nbsp;26.926028348985355" style="text;strokeColor=none;fillColor=none;align=left;verticalAlign=top;spacingLeft=4;spacingRight=4;overflow=hidden;rotatable=0;points=[[0,0.5],[1,0.5]];portConstraint=eastwest;whiteSpace=wrap;html=1;" parent="FDrHorXSiLE-RwHZ9RLK-13" vertex="1">
          <mxGeometry y="234" width="210" height="26" as="geometry" />
        </mxCell>
        <mxCell id="FDrHorXSiLE-RwHZ9RLK-26" value="humidity =&amp;nbsp;17.046839247071844" style="text;strokeColor=none;fillColor=none;align=left;verticalAlign=top;spacingLeft=4;spacingRight=4;overflow=hidden;rotatable=0;points=[[0,0.5],[1,0.5]];portConstraint=eastwest;whiteSpace=wrap;html=1;" parent="FDrHorXSiLE-RwHZ9RLK-13" vertex="1">
          <mxGeometry y="260" width="210" height="26" as="geometry" />
        </mxCell>
        <mxCell id="FDrHorXSiLE-RwHZ9RLK-18" value="wind_speed =&amp;nbsp;5.814550922558157" style="text;strokeColor=none;fillColor=none;align=left;verticalAlign=top;spacingLeft=4;spacingRight=4;overflow=hidden;rotatable=0;points=[[0,0.5],[1,0.5]];portConstraint=eastwest;whiteSpace=wrap;html=1;" parent="FDrHorXSiLE-RwHZ9RLK-13" vertex="1">
          <mxGeometry y="286" width="210" height="26" as="geometry" />
        </mxCell>
        <mxCell id="FDrHorXSiLE-RwHZ9RLK-27" value="B:Blog" style="swimlane;fontStyle=1;align=center;verticalAlign=top;childLayout=stackLayout;horizontal=1;startSize=26;horizontalStack=0;resizeParent=1;resizeParentMax=0;resizeLast=0;collapsible=1;marginBottom=0;whiteSpace=wrap;html=1;" parent="1" vertex="1">
          <mxGeometry x="2330" y="1270" width="239" height="328" as="geometry" />
        </mxCell>
        <mxCell id="FDrHorXSiLE-RwHZ9RLK-28" value="id =&amp;nbsp;65a919940890f31ca46904b1" style="text;strokeColor=none;fillColor=none;align=left;verticalAlign=top;spacingLeft=4;spacingRight=4;overflow=hidden;rotatable=0;points=[[0,0.5],[1,0.5]];portConstraint=eastwest;whiteSpace=wrap;html=1;" parent="FDrHorXSiLE-RwHZ9RLK-27" vertex="1">
          <mxGeometry y="26" width="239" height="26" as="geometry" />
        </mxCell>
        <mxCell id="FDrHorXSiLE-RwHZ9RLK-29" value="title =&amp;nbsp;title 1" style="text;strokeColor=none;fillColor=none;align=left;verticalAlign=top;spacingLeft=4;spacingRight=4;overflow=hidden;rotatable=0;points=[[0,0.5],[1,0.5]];portConstraint=eastwest;whiteSpace=wrap;html=1;" parent="FDrHorXSiLE-RwHZ9RLK-27" vertex="1">
          <mxGeometry y="52" width="239" height="26" as="geometry" />
        </mxCell>
        <mxCell id="FDrHorXSiLE-RwHZ9RLK-30" value="description =&amp;nbsp;description 1" style="text;strokeColor=none;fillColor=none;align=left;verticalAlign=top;spacingLeft=4;spacingRight=4;overflow=hidden;rotatable=0;points=[[0,0.5],[1,0.5]];portConstraint=eastwest;whiteSpace=wrap;html=1;" parent="FDrHorXSiLE-RwHZ9RLK-27" vertex="1">
          <mxGeometry y="78" width="239" height="26" as="geometry" />
        </mxCell>
        <mxCell id="FDrHorXSiLE-RwHZ9RLK-31" value="content = [&lt;span style=&quot;background-color: initial;&quot;&gt;mainTitle&lt;/span&gt;&lt;div&gt;&quot;main title 1&quot;&lt;/div&gt;&lt;div&gt;mainContent&lt;/div&gt;&lt;div&gt;&quot;main &amp;lt;b&amp;gt;content 1&amp;lt;/b&amp;gt;&quot;&lt;/div&gt;&lt;div&gt;subContent&lt;/div&gt;&lt;span style=&quot;background-color: initial;&quot;&gt;&quot;sub content 1 `markdown`&quot;&lt;/span&gt;]" style="text;strokeColor=none;fillColor=none;align=left;verticalAlign=top;spacingLeft=4;spacingRight=4;overflow=hidden;rotatable=0;points=[[0,0.5],[1,0.5]];portConstraint=eastwest;whiteSpace=wrap;html=1;" parent="FDrHorXSiLE-RwHZ9RLK-27" vertex="1">
          <mxGeometry y="104" width="239" height="96" as="geometry" />
        </mxCell>
        <mxCell id="FDrHorXSiLE-RwHZ9RLK-35" value="image =&amp;nbsp;https://png.pngtree.com/background/20230411/original/pngtree-natural-l…" style="text;strokeColor=none;fillColor=none;align=left;verticalAlign=top;spacingLeft=4;spacingRight=4;overflow=hidden;rotatable=0;points=[[0,0.5],[1,0.5]];portConstraint=eastwest;whiteSpace=wrap;html=1;" parent="FDrHorXSiLE-RwHZ9RLK-27" vertex="1">
          <mxGeometry y="200" width="239" height="50" as="geometry" />
        </mxCell>
        <mxCell id="FDrHorXSiLE-RwHZ9RLK-36" value="tags = Seed" style="text;strokeColor=none;fillColor=none;align=left;verticalAlign=top;spacingLeft=4;spacingRight=4;overflow=hidden;rotatable=0;points=[[0,0.5],[1,0.5]];portConstraint=eastwest;whiteSpace=wrap;html=1;" parent="FDrHorXSiLE-RwHZ9RLK-27" vertex="1">
          <mxGeometry y="250" width="239" height="26" as="geometry" />
        </mxCell>
        <mxCell id="FDrHorXSiLE-RwHZ9RLK-38" value="updated_at =&amp;nbsp;Jan 19 2024" style="text;strokeColor=none;fillColor=none;align=left;verticalAlign=top;spacingLeft=4;spacingRight=4;overflow=hidden;rotatable=0;points=[[0,0.5],[1,0.5]];portConstraint=eastwest;whiteSpace=wrap;html=1;" parent="FDrHorXSiLE-RwHZ9RLK-27" vertex="1">
          <mxGeometry y="276" width="239" height="26" as="geometry" />
        </mxCell>
        <mxCell id="FDrHorXSiLE-RwHZ9RLK-32" value="author =&amp;nbsp;author 1" style="text;strokeColor=none;fillColor=none;align=left;verticalAlign=top;spacingLeft=4;spacingRight=4;overflow=hidden;rotatable=0;points=[[0,0.5],[1,0.5]];portConstraint=eastwest;whiteSpace=wrap;html=1;" parent="FDrHorXSiLE-RwHZ9RLK-27" vertex="1">
          <mxGeometry y="302" width="239" height="26" as="geometry" />
        </mxCell>
        <mxCell id="FDrHorXSiLE-RwHZ9RLK-39" value="CM:Comment" style="swimlane;fontStyle=1;align=center;verticalAlign=top;childLayout=stackLayout;horizontal=1;startSize=26;horizontalStack=0;resizeParent=1;resizeParentMax=0;resizeLast=0;collapsible=1;marginBottom=0;whiteSpace=wrap;html=1;" parent="1" vertex="1">
          <mxGeometry x="2731" y="1213" width="300" height="476" as="geometry" />
        </mxCell>
        <mxCell id="FDrHorXSiLE-RwHZ9RLK-40" value="id =&amp;nbsp;65ae3c07620e123b776a49a6" style="text;strokeColor=none;fillColor=none;align=left;verticalAlign=top;spacingLeft=4;spacingRight=4;overflow=hidden;rotatable=0;points=[[0,0.5],[1,0.5]];portConstraint=eastwest;whiteSpace=wrap;html=1;" parent="FDrHorXSiLE-RwHZ9RLK-39" vertex="1">
          <mxGeometry y="26" width="300" height="26" as="geometry" />
        </mxCell>
        <mxCell id="FDrHorXSiLE-RwHZ9RLK-41" value="blogId =&amp;nbsp;65a919940890f31ca46904b1" style="text;strokeColor=none;fillColor=none;align=left;verticalAlign=top;spacingLeft=4;spacingRight=4;overflow=hidden;rotatable=0;points=[[0,0.5],[1,0.5]];portConstraint=eastwest;whiteSpace=wrap;html=1;" parent="FDrHorXSiLE-RwHZ9RLK-39" vertex="1">
          <mxGeometry y="52" width="300" height="26" as="geometry" />
        </mxCell>
        <mxCell id="FDrHorXSiLE-RwHZ9RLK-42" value="name =&amp;nbsp;kavindu kokila" style="text;strokeColor=none;fillColor=none;align=left;verticalAlign=top;spacingLeft=4;spacingRight=4;overflow=hidden;rotatable=0;points=[[0,0.5],[1,0.5]];portConstraint=eastwest;whiteSpace=wrap;html=1;" parent="FDrHorXSiLE-RwHZ9RLK-39" vertex="1">
          <mxGeometry y="78" width="300" height="26" as="geometry" />
        </mxCell>
        <mxCell id="FDrHorXSiLE-RwHZ9RLK-43" value="email =&amp;nbsp;kavindu123450@gmail.com" style="text;strokeColor=none;fillColor=none;align=left;verticalAlign=top;spacingLeft=4;spacingRight=4;overflow=hidden;rotatable=0;points=[[0,0.5],[1,0.5]];portConstraint=eastwest;whiteSpace=wrap;html=1;" parent="FDrHorXSiLE-RwHZ9RLK-39" vertex="1">
          <mxGeometry y="104" width="300" height="26" as="geometry" />
        </mxCell>
        <mxCell id="FDrHorXSiLE-RwHZ9RLK-44" value="profile =&amp;nbsp;https://lh3.googleusercontent.com/a/ACg8ocLY9idn43Q6vZWjnHIfhCXtvy0Swz…" style="text;strokeColor=none;fillColor=none;align=left;verticalAlign=top;spacingLeft=4;spacingRight=4;overflow=hidden;rotatable=0;points=[[0,0.5],[1,0.5]];portConstraint=eastwest;whiteSpace=wrap;html=1;" parent="FDrHorXSiLE-RwHZ9RLK-39" vertex="1">
          <mxGeometry y="130" width="300" height="40" as="geometry" />
        </mxCell>
        <mxCell id="FDrHorXSiLE-RwHZ9RLK-45" value="date =&amp;nbsp;Jan 22 2024" style="text;strokeColor=none;fillColor=none;align=left;verticalAlign=top;spacingLeft=4;spacingRight=4;overflow=hidden;rotatable=0;points=[[0,0.5],[1,0.5]];portConstraint=eastwest;whiteSpace=wrap;html=1;" parent="FDrHorXSiLE-RwHZ9RLK-39" vertex="1">
          <mxGeometry y="170" width="300" height="26" as="geometry" />
        </mxCell>
        <mxCell id="FDrHorXSiLE-RwHZ9RLK-46" value="comment =&amp;nbsp;first comment in blog 1" style="text;strokeColor=none;fillColor=none;align=left;verticalAlign=top;spacingLeft=4;spacingRight=4;overflow=hidden;rotatable=0;points=[[0,0.5],[1,0.5]];portConstraint=eastwest;whiteSpace=wrap;html=1;" parent="FDrHorXSiLE-RwHZ9RLK-39" vertex="1">
          <mxGeometry y="196" width="300" height="26" as="geometry" />
        </mxCell>
        <mxCell id="FDrHorXSiLE-RwHZ9RLK-47" value="reply = [&lt;span style=&quot;background-color: initial;&quot;&gt;id&lt;/span&gt;&lt;div&gt;null&lt;/div&gt;&lt;div&gt;commentId&lt;/div&gt;&lt;div&gt;null&lt;/div&gt;&lt;div&gt;name&lt;/div&gt;&lt;div&gt;&quot;Geographical Analysis Platform&quot;&lt;/div&gt;&lt;div&gt;email&lt;/div&gt;&lt;div&gt;null&lt;/div&gt;&lt;div&gt;profile&lt;/div&gt;&lt;div&gt;&quot;https://e7.pngegg.com/pngimages/858/1004/png-clipart-computer-icons-ve…&quot;&lt;/div&gt;&lt;div&gt;date&lt;/div&gt;&lt;div&gt;&quot;Jan 22 2024&quot;&lt;/div&gt;&lt;div&gt;replyComment&lt;/div&gt;&lt;span style=&quot;background-color: initial;&quot;&gt;&quot;Thanks for your comment!&quot;&lt;/span&gt;]" style="text;strokeColor=none;fillColor=none;align=left;verticalAlign=top;spacingLeft=4;spacingRight=4;overflow=hidden;rotatable=0;points=[[0,0.5],[1,0.5]];portConstraint=eastwest;whiteSpace=wrap;html=1;" parent="FDrHorXSiLE-RwHZ9RLK-39" vertex="1">
          <mxGeometry y="222" width="300" height="228" as="geometry" />
        </mxCell>
        <mxCell id="FDrHorXSiLE-RwHZ9RLK-48" value="like = 7" style="text;strokeColor=none;fillColor=none;align=left;verticalAlign=top;spacingLeft=4;spacingRight=4;overflow=hidden;rotatable=0;points=[[0,0.5],[1,0.5]];portConstraint=eastwest;whiteSpace=wrap;html=1;" parent="FDrHorXSiLE-RwHZ9RLK-39" vertex="1">
          <mxGeometry y="450" width="300" height="26" as="geometry" />
        </mxCell>
        <mxCell id="FDrHorXSiLE-RwHZ9RLK-51" value="C:Credentials" style="swimlane;fontStyle=1;align=center;verticalAlign=top;childLayout=stackLayout;horizontal=1;startSize=26;horizontalStack=0;resizeParent=1;resizeParentMax=0;resizeLast=0;collapsible=1;marginBottom=0;whiteSpace=wrap;html=1;" parent="1" vertex="1">
          <mxGeometry x="2350" y="160" width="200" height="104" as="geometry" />
        </mxCell>
        <mxCell id="FDrHorXSiLE-RwHZ9RLK-52" value="id =&amp;nbsp;65b3b86804d13b15583b5445" style="text;strokeColor=none;fillColor=none;align=left;verticalAlign=top;spacingLeft=4;spacingRight=4;overflow=hidden;rotatable=0;points=[[0,0.5],[1,0.5]];portConstraint=eastwest;whiteSpace=wrap;html=1;" parent="FDrHorXSiLE-RwHZ9RLK-51" vertex="1">
          <mxGeometry y="26" width="200" height="26" as="geometry" />
        </mxCell>
        <mxCell id="FDrHorXSiLE-RwHZ9RLK-55" value="email =&amp;nbsp;tester@gmail.com" style="text;strokeColor=none;fillColor=none;align=left;verticalAlign=top;spacingLeft=4;spacingRight=4;overflow=hidden;rotatable=0;points=[[0,0.5],[1,0.5]];portConstraint=eastwest;whiteSpace=wrap;html=1;" parent="FDrHorXSiLE-RwHZ9RLK-51" vertex="1">
          <mxGeometry y="52" width="200" height="26" as="geometry" />
        </mxCell>
        <mxCell id="FDrHorXSiLE-RwHZ9RLK-56" value="password =&amp;nbsp;1234" style="text;strokeColor=none;fillColor=none;align=left;verticalAlign=top;spacingLeft=4;spacingRight=4;overflow=hidden;rotatable=0;points=[[0,0.5],[1,0.5]];portConstraint=eastwest;whiteSpace=wrap;html=1;" parent="FDrHorXSiLE-RwHZ9RLK-51" vertex="1">
          <mxGeometry y="78" width="200" height="26" as="geometry" />
        </mxCell>
        <mxCell id="FDrHorXSiLE-RwHZ9RLK-57" value="CO:Contact" style="swimlane;fontStyle=1;align=center;verticalAlign=top;childLayout=stackLayout;horizontal=1;startSize=26;horizontalStack=0;resizeParent=1;resizeParentMax=0;resizeLast=0;collapsible=1;marginBottom=0;whiteSpace=wrap;html=1;" parent="1" vertex="1">
          <mxGeometry x="2330" y="2120" width="230" height="130" as="geometry" />
        </mxCell>
        <mxCell id="FDrHorXSiLE-RwHZ9RLK-58" value="id =&amp;nbsp;65b3bc9904d13b15583b5448" style="text;strokeColor=none;fillColor=none;align=left;verticalAlign=top;spacingLeft=4;spacingRight=4;overflow=hidden;rotatable=0;points=[[0,0.5],[1,0.5]];portConstraint=eastwest;whiteSpace=wrap;html=1;" parent="FDrHorXSiLE-RwHZ9RLK-57" vertex="1">
          <mxGeometry y="26" width="230" height="26" as="geometry" />
        </mxCell>
        <mxCell id="FDrHorXSiLE-RwHZ9RLK-59" value="name = test" style="text;strokeColor=none;fillColor=none;align=left;verticalAlign=top;spacingLeft=4;spacingRight=4;overflow=hidden;rotatable=0;points=[[0,0.5],[1,0.5]];portConstraint=eastwest;whiteSpace=wrap;html=1;" parent="FDrHorXSiLE-RwHZ9RLK-57" vertex="1">
          <mxGeometry y="52" width="230" height="26" as="geometry" />
        </mxCell>
        <mxCell id="FDrHorXSiLE-RwHZ9RLK-60" value="email = test@gmail.com" style="text;strokeColor=none;fillColor=none;align=left;verticalAlign=top;spacingLeft=4;spacingRight=4;overflow=hidden;rotatable=0;points=[[0,0.5],[1,0.5]];portConstraint=eastwest;whiteSpace=wrap;html=1;" parent="FDrHorXSiLE-RwHZ9RLK-57" vertex="1">
          <mxGeometry y="78" width="230" height="26" as="geometry" />
        </mxCell>
        <mxCell id="L4PsidqdgJCxc6JKoqgF-303" value="message = Hello.. this is a test message" style="text;strokeColor=none;fillColor=none;align=left;verticalAlign=top;spacingLeft=4;spacingRight=4;overflow=hidden;rotatable=0;points=[[0,0.5],[1,0.5]];portConstraint=eastwest;whiteSpace=wrap;html=1;" parent="FDrHorXSiLE-RwHZ9RLK-57" vertex="1">
          <mxGeometry y="104" width="230" height="26" as="geometry" />
        </mxCell>
        <mxCell id="FDrHorXSiLE-RwHZ9RLK-65" value="FAQ:FAQ" style="swimlane;fontStyle=1;align=center;verticalAlign=top;childLayout=stackLayout;horizontal=1;startSize=26;horizontalStack=0;resizeParent=1;resizeParentMax=0;resizeLast=0;collapsible=1;marginBottom=0;whiteSpace=wrap;html=1;" parent="1" vertex="1">
          <mxGeometry x="2325" y="1930" width="230" height="140" as="geometry" />
        </mxCell>
        <mxCell id="FDrHorXSiLE-RwHZ9RLK-66" value="id =&amp;nbsp;65a821a780400c303da67313" style="text;strokeColor=none;fillColor=none;align=left;verticalAlign=top;spacingLeft=4;spacingRight=4;overflow=hidden;rotatable=0;points=[[0,0.5],[1,0.5]];portConstraint=eastwest;whiteSpace=wrap;html=1;" parent="FDrHorXSiLE-RwHZ9RLK-65" vertex="1">
          <mxGeometry y="26" width="230" height="26" as="geometry" />
        </mxCell>
        <mxCell id="FDrHorXSiLE-RwHZ9RLK-67" value="question =&amp;nbsp;How are machine learning models utilized in the application?" style="text;strokeColor=none;fillColor=none;align=left;verticalAlign=top;spacingLeft=4;spacingRight=4;overflow=hidden;rotatable=0;points=[[0,0.5],[1,0.5]];portConstraint=eastwest;whiteSpace=wrap;html=1;" parent="FDrHorXSiLE-RwHZ9RLK-65" vertex="1">
          <mxGeometry y="52" width="230" height="38" as="geometry" />
        </mxCell>
        <mxCell id="FDrHorXSiLE-RwHZ9RLK-68" value="answer =&amp;nbsp;Machine learning models, particularly Linear Regression, are employed …" style="text;strokeColor=none;fillColor=none;align=left;verticalAlign=top;spacingLeft=4;spacingRight=4;overflow=hidden;rotatable=0;points=[[0,0.5],[1,0.5]];portConstraint=eastwest;whiteSpace=wrap;html=1;" parent="FDrHorXSiLE-RwHZ9RLK-65" vertex="1">
          <mxGeometry y="90" width="230" height="50" as="geometry" />
        </mxCell>
        <mxCell id="FDrHorXSiLE-RwHZ9RLK-71" value="FB:Feedback" style="swimlane;fontStyle=1;align=center;verticalAlign=top;childLayout=stackLayout;horizontal=1;startSize=26;horizontalStack=0;resizeParent=1;resizeParentMax=0;resizeLast=0;collapsible=1;marginBottom=0;whiteSpace=wrap;html=1;" parent="1" vertex="1">
          <mxGeometry x="2295.5" y="1650" width="289" height="222" as="geometry" />
        </mxCell>
        <mxCell id="FDrHorXSiLE-RwHZ9RLK-72" value="id =&amp;nbsp;65abe10d3eebb0595634ee41" style="text;strokeColor=none;fillColor=none;align=left;verticalAlign=top;spacingLeft=4;spacingRight=4;overflow=hidden;rotatable=0;points=[[0,0.5],[1,0.5]];portConstraint=eastwest;whiteSpace=wrap;html=1;" parent="FDrHorXSiLE-RwHZ9RLK-71" vertex="1">
          <mxGeometry y="26" width="289" height="26" as="geometry" />
        </mxCell>
        <mxCell id="FDrHorXSiLE-RwHZ9RLK-73" value="name =&amp;nbsp;kavindu kokila" style="text;strokeColor=none;fillColor=none;align=left;verticalAlign=top;spacingLeft=4;spacingRight=4;overflow=hidden;rotatable=0;points=[[0,0.5],[1,0.5]];portConstraint=eastwest;whiteSpace=wrap;html=1;" parent="FDrHorXSiLE-RwHZ9RLK-71" vertex="1">
          <mxGeometry y="52" width="289" height="26" as="geometry" />
        </mxCell>
        <mxCell id="FDrHorXSiLE-RwHZ9RLK-79" value="family_name =&amp;nbsp;kokila" style="text;strokeColor=none;fillColor=none;align=left;verticalAlign=top;spacingLeft=4;spacingRight=4;overflow=hidden;rotatable=0;points=[[0,0.5],[1,0.5]];portConstraint=eastwest;whiteSpace=wrap;html=1;" parent="FDrHorXSiLE-RwHZ9RLK-71" vertex="1">
          <mxGeometry y="78" width="289" height="26" as="geometry" />
        </mxCell>
        <mxCell id="FDrHorXSiLE-RwHZ9RLK-74" value="email =&amp;nbsp;kavindu123450@gmail.com" style="text;strokeColor=none;fillColor=none;align=left;verticalAlign=top;spacingLeft=4;spacingRight=4;overflow=hidden;rotatable=0;points=[[0,0.5],[1,0.5]];portConstraint=eastwest;whiteSpace=wrap;html=1;" parent="FDrHorXSiLE-RwHZ9RLK-71" vertex="1">
          <mxGeometry y="104" width="289" height="26" as="geometry" />
        </mxCell>
        <mxCell id="FDrHorXSiLE-RwHZ9RLK-75" value="picture =&amp;nbsp;https://lh3.googleusercontent.com/a/ACg8ocLY9idn43Q6vZWjnHIfhCXtvy0Swz…" style="text;strokeColor=none;fillColor=none;align=left;verticalAlign=top;spacingLeft=4;spacingRight=4;overflow=hidden;rotatable=0;points=[[0,0.5],[1,0.5]];portConstraint=eastwest;whiteSpace=wrap;html=1;" parent="FDrHorXSiLE-RwHZ9RLK-71" vertex="1">
          <mxGeometry y="130" width="289" height="40" as="geometry" />
        </mxCell>
        <mxCell id="FDrHorXSiLE-RwHZ9RLK-76" value="feedback =&amp;nbsp;this is a test feedback from author" style="text;strokeColor=none;fillColor=none;align=left;verticalAlign=top;spacingLeft=4;spacingRight=4;overflow=hidden;rotatable=0;points=[[0,0.5],[1,0.5]];portConstraint=eastwest;whiteSpace=wrap;html=1;" parent="FDrHorXSiLE-RwHZ9RLK-71" vertex="1">
          <mxGeometry y="170" width="289" height="26" as="geometry" />
        </mxCell>
        <mxCell id="FDrHorXSiLE-RwHZ9RLK-80" value="date =&amp;nbsp;Jan 20 2024" style="text;strokeColor=none;fillColor=none;align=left;verticalAlign=top;spacingLeft=4;spacingRight=4;overflow=hidden;rotatable=0;points=[[0,0.5],[1,0.5]];portConstraint=eastwest;whiteSpace=wrap;html=1;" parent="FDrHorXSiLE-RwHZ9RLK-71" vertex="1">
          <mxGeometry y="196" width="289" height="26" as="geometry" />
        </mxCell>
        <mxCell id="FDrHorXSiLE-RwHZ9RLK-81" value="F:Forecast" style="swimlane;fontStyle=1;align=center;verticalAlign=top;childLayout=stackLayout;horizontal=1;startSize=26;horizontalStack=0;resizeParent=1;resizeParentMax=0;resizeLast=0;collapsible=1;marginBottom=0;whiteSpace=wrap;html=1;" parent="1" vertex="1">
          <mxGeometry x="2270" y="1020" width="340" height="192" as="geometry" />
        </mxCell>
        <mxCell id="FDrHorXSiLE-RwHZ9RLK-82" value="id = 1" style="text;strokeColor=none;fillColor=none;align=left;verticalAlign=top;spacingLeft=4;spacingRight=4;overflow=hidden;rotatable=0;points=[[0,0.5],[1,0.5]];portConstraint=eastwest;whiteSpace=wrap;html=1;" parent="FDrHorXSiLE-RwHZ9RLK-81" vertex="1">
          <mxGeometry y="26" width="340" height="26" as="geometry" />
        </mxCell>
        <mxCell id="FDrHorXSiLE-RwHZ9RLK-83" value="title =&amp;nbsp;WEATHER FORECAST FOR 17 January 2024" style="text;strokeColor=none;fillColor=none;align=left;verticalAlign=top;spacingLeft=4;spacingRight=4;overflow=hidden;rotatable=0;points=[[0,0.5],[1,0.5]];portConstraint=eastwest;whiteSpace=wrap;html=1;" parent="FDrHorXSiLE-RwHZ9RLK-81" vertex="1">
          <mxGeometry y="52" width="340" height="26" as="geometry" />
        </mxCell>
        <mxCell id="FDrHorXSiLE-RwHZ9RLK-84" value="dateTime =&amp;nbsp;Jan 20 2024" style="text;strokeColor=none;fillColor=none;align=left;verticalAlign=top;spacingLeft=4;spacingRight=4;overflow=hidden;rotatable=0;points=[[0,0.5],[1,0.5]];portConstraint=eastwest;whiteSpace=wrap;html=1;" parent="FDrHorXSiLE-RwHZ9RLK-81" vertex="1">
          <mxGeometry y="78" width="340" height="26" as="geometry" />
        </mxCell>
        <mxCell id="FDrHorXSiLE-RwHZ9RLK-85" value="description =&amp;nbsp;&amp;lt;b&amp;gt;Rainy condition is expected to be enhanced in Northern, Eastern, Uv…" style="text;strokeColor=none;fillColor=none;align=left;verticalAlign=top;spacingLeft=4;spacingRight=4;overflow=hidden;rotatable=0;points=[[0,0.5],[1,0.5]];portConstraint=eastwest;whiteSpace=wrap;html=1;" parent="FDrHorXSiLE-RwHZ9RLK-81" vertex="1">
          <mxGeometry y="104" width="340" height="36" as="geometry" />
        </mxCell>
        <mxCell id="FDrHorXSiLE-RwHZ9RLK-86" value="likes = 3" style="text;strokeColor=none;fillColor=none;align=left;verticalAlign=top;spacingLeft=4;spacingRight=4;overflow=hidden;rotatable=0;points=[[0,0.5],[1,0.5]];portConstraint=eastwest;whiteSpace=wrap;html=1;" parent="FDrHorXSiLE-RwHZ9RLK-81" vertex="1">
          <mxGeometry y="140" width="340" height="26" as="geometry" />
        </mxCell>
        <mxCell id="FDrHorXSiLE-RwHZ9RLK-89" value="visible = true" style="text;strokeColor=none;fillColor=none;align=left;verticalAlign=top;spacingLeft=4;spacingRight=4;overflow=hidden;rotatable=0;points=[[0,0.5],[1,0.5]];portConstraint=eastwest;whiteSpace=wrap;html=1;" parent="FDrHorXSiLE-RwHZ9RLK-81" vertex="1">
          <mxGeometry y="166" width="340" height="26" as="geometry" />
        </mxCell>
        <mxCell id="FDrHorXSiLE-RwHZ9RLK-97" value="Metrological" style="swimlane;fontStyle=1;align=center;verticalAlign=top;childLayout=stackLayout;horizontal=1;startSize=26;horizontalStack=0;resizeParent=1;resizeParentMax=0;resizeLast=0;collapsible=1;marginBottom=0;whiteSpace=wrap;html=1;" parent="1" vertex="1">
          <mxGeometry x="2330" y="760" width="216" height="208" as="geometry">
            <mxRectangle x="2320" y="880" width="110" height="30" as="alternateBounds" />
          </mxGeometry>
        </mxCell>
        <mxCell id="FDrHorXSiLE-RwHZ9RLK-98" value="id =&amp;nbsp;65bd34d5621fee2b7886f2c1" style="text;strokeColor=none;fillColor=none;align=left;verticalAlign=top;spacingLeft=4;spacingRight=4;overflow=hidden;rotatable=0;points=[[0,0.5],[1,0.5]];portConstraint=eastwest;whiteSpace=wrap;html=1;" parent="FDrHorXSiLE-RwHZ9RLK-97" vertex="1">
          <mxGeometry y="26" width="216" height="26" as="geometry" />
        </mxCell>
        <mxCell id="FDrHorXSiLE-RwHZ9RLK-99" value="timestamp =&amp;nbsp;2024-02-03 00:00:45" style="text;strokeColor=none;fillColor=none;align=left;verticalAlign=top;spacingLeft=4;spacingRight=4;overflow=hidden;rotatable=0;points=[[0,0.5],[1,0.5]];portConstraint=eastwest;whiteSpace=wrap;html=1;" parent="FDrHorXSiLE-RwHZ9RLK-97" vertex="1">
          <mxGeometry y="52" width="216" height="26" as="geometry" />
        </mxCell>
        <mxCell id="FDrHorXSiLE-RwHZ9RLK-100" value="location =&amp;nbsp;Residential" style="text;strokeColor=none;fillColor=none;align=left;verticalAlign=top;spacingLeft=4;spacingRight=4;overflow=hidden;rotatable=0;points=[[0,0.5],[1,0.5]];portConstraint=eastwest;whiteSpace=wrap;html=1;" parent="FDrHorXSiLE-RwHZ9RLK-97" vertex="1">
          <mxGeometry y="78" width="216" height="26" as="geometry" />
        </mxCell>
        <mxCell id="FDrHorXSiLE-RwHZ9RLK-101" value="temperature =&amp;nbsp;25.25602619439251" style="text;strokeColor=none;fillColor=none;align=left;verticalAlign=top;spacingLeft=4;spacingRight=4;overflow=hidden;rotatable=0;points=[[0,0.5],[1,0.5]];portConstraint=eastwest;whiteSpace=wrap;html=1;" parent="FDrHorXSiLE-RwHZ9RLK-97" vertex="1">
          <mxGeometry y="104" width="216" height="26" as="geometry" />
        </mxCell>
        <mxCell id="FDrHorXSiLE-RwHZ9RLK-102" value="humidity =&amp;nbsp;16.491425375768497" style="text;strokeColor=none;fillColor=none;align=left;verticalAlign=top;spacingLeft=4;spacingRight=4;overflow=hidden;rotatable=0;points=[[0,0.5],[1,0.5]];portConstraint=eastwest;whiteSpace=wrap;html=1;" parent="FDrHorXSiLE-RwHZ9RLK-97" vertex="1">
          <mxGeometry y="130" width="216" height="26" as="geometry" />
        </mxCell>
        <mxCell id="FDrHorXSiLE-RwHZ9RLK-103" value="wind_speed =&amp;nbsp;5.246390767075226" style="text;strokeColor=none;fillColor=none;align=left;verticalAlign=top;spacingLeft=4;spacingRight=4;overflow=hidden;rotatable=0;points=[[0,0.5],[1,0.5]];portConstraint=eastwest;whiteSpace=wrap;html=1;" parent="FDrHorXSiLE-RwHZ9RLK-97" vertex="1">
          <mxGeometry y="156" width="216" height="26" as="geometry" />
        </mxCell>
        <mxCell id="FDrHorXSiLE-RwHZ9RLK-104" value="precipitation =&amp;nbsp;0.09825138673399064" style="text;strokeColor=none;fillColor=none;align=left;verticalAlign=top;spacingLeft=4;spacingRight=4;overflow=hidden;rotatable=0;points=[[0,0.5],[1,0.5]];portConstraint=eastwest;whiteSpace=wrap;html=1;" parent="FDrHorXSiLE-RwHZ9RLK-97" vertex="1">
          <mxGeometry y="182" width="216" height="26" as="geometry" />
        </mxCell>
        <mxCell id="FDrHorXSiLE-RwHZ9RLK-107" value="U:User" style="swimlane;fontStyle=1;align=center;verticalAlign=top;childLayout=stackLayout;horizontal=1;startSize=26;horizontalStack=0;resizeParent=1;resizeParentMax=0;resizeLast=0;collapsible=1;marginBottom=0;whiteSpace=wrap;html=1;" parent="1" vertex="1">
          <mxGeometry x="2731" y="400" width="200" height="208" as="geometry" />
        </mxCell>
        <mxCell id="FDrHorXSiLE-RwHZ9RLK-108" value="id =&amp;nbsp;65a65a5a31491322d8f4db74" style="text;strokeColor=none;fillColor=none;align=left;verticalAlign=top;spacingLeft=4;spacingRight=4;overflow=hidden;rotatable=0;points=[[0,0.5],[1,0.5]];portConstraint=eastwest;whiteSpace=wrap;html=1;" parent="FDrHorXSiLE-RwHZ9RLK-107" vertex="1">
          <mxGeometry y="26" width="200" height="26" as="geometry" />
        </mxCell>
        <mxCell id="FDrHorXSiLE-RwHZ9RLK-109" value="name =&amp;nbsp;test1" style="text;strokeColor=none;fillColor=none;align=left;verticalAlign=top;spacingLeft=4;spacingRight=4;overflow=hidden;rotatable=0;points=[[0,0.5],[1,0.5]];portConstraint=eastwest;whiteSpace=wrap;html=1;" parent="FDrHorXSiLE-RwHZ9RLK-107" vertex="1">
          <mxGeometry y="52" width="200" height="26" as="geometry" />
        </mxCell>
        <mxCell id="FDrHorXSiLE-RwHZ9RLK-110" value="email =&amp;nbsp;test1@gmail.com" style="text;strokeColor=none;fillColor=none;align=left;verticalAlign=top;spacingLeft=4;spacingRight=4;overflow=hidden;rotatable=0;points=[[0,0.5],[1,0.5]];portConstraint=eastwest;whiteSpace=wrap;html=1;" parent="FDrHorXSiLE-RwHZ9RLK-107" vertex="1">
          <mxGeometry y="78" width="200" height="26" as="geometry" />
        </mxCell>
        <mxCell id="FDrHorXSiLE-RwHZ9RLK-111" value="phone =&amp;nbsp;1234567890" style="text;strokeColor=none;fillColor=none;align=left;verticalAlign=top;spacingLeft=4;spacingRight=4;overflow=hidden;rotatable=0;points=[[0,0.5],[1,0.5]];portConstraint=eastwest;whiteSpace=wrap;html=1;" parent="FDrHorXSiLE-RwHZ9RLK-107" vertex="1">
          <mxGeometry y="104" width="200" height="26" as="geometry" />
        </mxCell>
        <mxCell id="FDrHorXSiLE-RwHZ9RLK-112" value="country =&amp;nbsp;Albania" style="text;strokeColor=none;fillColor=none;align=left;verticalAlign=top;spacingLeft=4;spacingRight=4;overflow=hidden;rotatable=0;points=[[0,0.5],[1,0.5]];portConstraint=eastwest;whiteSpace=wrap;html=1;" parent="FDrHorXSiLE-RwHZ9RLK-107" vertex="1">
          <mxGeometry y="130" width="200" height="26" as="geometry" />
        </mxCell>
        <mxCell id="FDrHorXSiLE-RwHZ9RLK-113" value="remarks =&amp;nbsp;Albania" style="text;strokeColor=none;fillColor=none;align=left;verticalAlign=top;spacingLeft=4;spacingRight=4;overflow=hidden;rotatable=0;points=[[0,0.5],[1,0.5]];portConstraint=eastwest;whiteSpace=wrap;html=1;" parent="FDrHorXSiLE-RwHZ9RLK-107" vertex="1">
          <mxGeometry y="156" width="200" height="26" as="geometry" />
        </mxCell>
        <mxCell id="FDrHorXSiLE-RwHZ9RLK-114" value="active: true" style="text;strokeColor=none;fillColor=none;align=left;verticalAlign=top;spacingLeft=4;spacingRight=4;overflow=hidden;rotatable=0;points=[[0,0.5],[1,0.5]];portConstraint=eastwest;whiteSpace=wrap;html=1;" parent="FDrHorXSiLE-RwHZ9RLK-107" vertex="1">
          <mxGeometry y="182" width="200" height="26" as="geometry" />
        </mxCell>
        <mxCell id="FDrHorXSiLE-RwHZ9RLK-117" value="UP:UserPolicy" style="swimlane;fontStyle=1;align=center;verticalAlign=top;childLayout=stackLayout;horizontal=1;startSize=26;horizontalStack=0;resizeParent=1;resizeParentMax=0;resizeLast=0;collapsible=1;marginBottom=0;whiteSpace=wrap;html=1;" parent="1" vertex="1">
          <mxGeometry x="2300" y="2300" width="290" height="136" as="geometry" />
        </mxCell>
        <mxCell id="FDrHorXSiLE-RwHZ9RLK-118" value="id =&amp;nbsp;65aa5dbe8705a555232ec18f" style="text;strokeColor=none;fillColor=none;align=left;verticalAlign=top;spacingLeft=4;spacingRight=4;overflow=hidden;rotatable=0;points=[[0,0.5],[1,0.5]];portConstraint=eastwest;whiteSpace=wrap;html=1;" parent="FDrHorXSiLE-RwHZ9RLK-117" vertex="1">
          <mxGeometry y="26" width="290" height="26" as="geometry" />
        </mxCell>
        <mxCell id="FDrHorXSiLE-RwHZ9RLK-119" value="markdownContent =&amp;nbsp;&lt;span style=&quot;background-color: initial;&quot;&gt;#### Information We Collect:&lt;/span&gt;&lt;div&gt;- **Personal Information:**&lt;/div&gt;&lt;div&gt;&amp;nbsp; - We may co…&lt;/div&gt;" style="text;strokeColor=none;fillColor=none;align=left;verticalAlign=top;spacingLeft=4;spacingRight=4;overflow=hidden;rotatable=0;points=[[0,0.5],[1,0.5]];portConstraint=eastwest;whiteSpace=wrap;html=1;" parent="FDrHorXSiLE-RwHZ9RLK-117" vertex="1">
          <mxGeometry y="52" width="290" height="58" as="geometry" />
        </mxCell>
        <mxCell id="FDrHorXSiLE-RwHZ9RLK-120" value="date =&amp;nbsp;Jan 19 2024" style="text;strokeColor=none;fillColor=none;align=left;verticalAlign=top;spacingLeft=4;spacingRight=4;overflow=hidden;rotatable=0;points=[[0,0.5],[1,0.5]];portConstraint=eastwest;whiteSpace=wrap;html=1;" parent="FDrHorXSiLE-RwHZ9RLK-117" vertex="1">
          <mxGeometry y="110" width="290" height="26" as="geometry" />
        </mxCell>
        <mxCell id="FDrHorXSiLE-RwHZ9RLK-123" value="UT:UserTerms" style="swimlane;fontStyle=1;align=center;verticalAlign=top;childLayout=stackLayout;horizontal=1;startSize=26;horizontalStack=0;resizeParent=1;resizeParentMax=0;resizeLast=0;collapsible=1;marginBottom=0;whiteSpace=wrap;html=1;" parent="1" vertex="1">
          <mxGeometry x="2280" y="2490" width="330" height="116" as="geometry" />
        </mxCell>
        <mxCell id="FDrHorXSiLE-RwHZ9RLK-124" value="id =&amp;nbsp;65aa71b8ee8e895fde71eeaf" style="text;strokeColor=none;fillColor=none;align=left;verticalAlign=top;spacingLeft=4;spacingRight=4;overflow=hidden;rotatable=0;points=[[0,0.5],[1,0.5]];portConstraint=eastwest;whiteSpace=wrap;html=1;" parent="FDrHorXSiLE-RwHZ9RLK-123" vertex="1">
          <mxGeometry y="26" width="330" height="26" as="geometry" />
        </mxCell>
        <mxCell id="FDrHorXSiLE-RwHZ9RLK-125" value="content =&amp;nbsp;&lt;span style=&quot;background-color: initial;&quot;&gt;#### Introduction&lt;/span&gt;&lt;div&gt;Welcome to Geographic Analysis Platform! These terms…&lt;/div&gt;" style="text;strokeColor=none;fillColor=none;align=left;verticalAlign=top;spacingLeft=4;spacingRight=4;overflow=hidden;rotatable=0;points=[[0,0.5],[1,0.5]];portConstraint=eastwest;whiteSpace=wrap;html=1;" parent="FDrHorXSiLE-RwHZ9RLK-123" vertex="1">
          <mxGeometry y="52" width="330" height="38" as="geometry" />
        </mxCell>
        <mxCell id="FDrHorXSiLE-RwHZ9RLK-126" value="date =&amp;nbsp;Jan 19 2024" style="text;strokeColor=none;fillColor=none;align=left;verticalAlign=top;spacingLeft=4;spacingRight=4;overflow=hidden;rotatable=0;points=[[0,0.5],[1,0.5]];portConstraint=eastwest;whiteSpace=wrap;html=1;" parent="FDrHorXSiLE-RwHZ9RLK-123" vertex="1">
          <mxGeometry y="90" width="330" height="26" as="geometry" />
        </mxCell>
        <mxCell id="qdUTuXBCynFa8y73pZ17-1" value="" style="endArrow=none;html=1;rounded=0;entryX=0.5;entryY=0;entryDx=0;entryDy=0;exitX=0.498;exitY=1.127;exitDx=0;exitDy=0;exitPerimeter=0;" edge="1" parent="1" source="FDrHorXSiLE-RwHZ9RLK-56" target="FDrHorXSiLE-RwHZ9RLK-5">
          <mxGeometry width="50" height="50" relative="1" as="geometry">
            <mxPoint x="2450" y="280" as="sourcePoint" />
            <mxPoint x="2710" y="410" as="targetPoint" />
            <Array as="points">
              <mxPoint x="2450" y="330" />
              <mxPoint x="2030" y="330" />
            </Array>
          </mxGeometry>
        </mxCell>
        <mxCell id="qdUTuXBCynFa8y73pZ17-2" value="" style="endArrow=none;html=1;rounded=0;entryX=0.5;entryY=1.231;entryDx=0;entryDy=0;entryPerimeter=0;exitX=0.5;exitY=0;exitDx=0;exitDy=0;" edge="1" parent="1" source="FDrHorXSiLE-RwHZ9RLK-107" target="FDrHorXSiLE-RwHZ9RLK-56">
          <mxGeometry width="50" height="50" relative="1" as="geometry">
            <mxPoint x="2440" y="350" as="sourcePoint" />
            <mxPoint x="2490" y="300" as="targetPoint" />
            <Array as="points">
              <mxPoint x="2831" y="330" />
              <mxPoint x="2450" y="330" />
            </Array>
          </mxGeometry>
        </mxCell>
        <mxCell id="qdUTuXBCynFa8y73pZ17-3" value="" style="endArrow=none;html=1;rounded=0;exitX=1;exitY=0.5;exitDx=0;exitDy=0;entryX=0;entryY=0.5;entryDx=0;entryDy=0;" edge="1" parent="1" source="FDrHorXSiLE-RwHZ9RLK-133" target="FDrHorXSiLE-RwHZ9RLK-125">
          <mxGeometry width="50" height="50" relative="1" as="geometry">
            <mxPoint x="2770" y="740" as="sourcePoint" />
            <mxPoint x="2820" y="690" as="targetPoint" />
            <Array as="points">
              <mxPoint x="2190" y="481" />
              <mxPoint x="2190" y="2561" />
            </Array>
          </mxGeometry>
        </mxCell>
        <mxCell id="qdUTuXBCynFa8y73pZ17-4" value="" style="endArrow=none;html=1;rounded=0;entryX=0;entryY=0.5;entryDx=0;entryDy=0;exitX=1;exitY=0.5;exitDx=0;exitDy=0;" edge="1" parent="1" source="FDrHorXSiLE-RwHZ9RLK-125" target="FDrHorXSiLE-RwHZ9RLK-110">
          <mxGeometry width="50" height="50" relative="1" as="geometry">
            <mxPoint x="2590" y="680" as="sourcePoint" />
            <mxPoint x="2840" y="430" as="targetPoint" />
            <Array as="points">
              <mxPoint x="2650" y="2561" />
              <mxPoint x="2650" y="491" />
            </Array>
          </mxGeometry>
        </mxCell>
        <mxCell id="qdUTuXBCynFa8y73pZ17-5" value="" style="endArrow=none;html=1;rounded=0;entryX=0;entryY=0.5;entryDx=0;entryDy=0;" edge="1" parent="1" target="FDrHorXSiLE-RwHZ9RLK-22">
          <mxGeometry width="50" height="50" relative="1" as="geometry">
            <mxPoint x="2190" y="595" as="sourcePoint" />
            <mxPoint x="2350" y="700" as="targetPoint" />
          </mxGeometry>
        </mxCell>
        <mxCell id="qdUTuXBCynFa8y73pZ17-6" value="" style="endArrow=none;html=1;rounded=0;exitX=1;exitY=0.5;exitDx=0;exitDy=0;" edge="1" parent="1" source="FDrHorXSiLE-RwHZ9RLK-22">
          <mxGeometry width="50" height="50" relative="1" as="geometry">
            <mxPoint x="2300" y="750" as="sourcePoint" />
            <mxPoint x="2650" y="595" as="targetPoint" />
          </mxGeometry>
        </mxCell>
        <mxCell id="qdUTuXBCynFa8y73pZ17-7" value="" style="endArrow=none;html=1;rounded=0;entryX=0;entryY=0.5;entryDx=0;entryDy=0;" edge="1" parent="1" target="FDrHorXSiLE-RwHZ9RLK-101">
          <mxGeometry width="50" height="50" relative="1" as="geometry">
            <mxPoint x="2190" y="877" as="sourcePoint" />
            <mxPoint x="2350" y="870" as="targetPoint" />
          </mxGeometry>
        </mxCell>
        <mxCell id="qdUTuXBCynFa8y73pZ17-8" value="" style="endArrow=none;html=1;rounded=0;exitX=1;exitY=0.5;exitDx=0;exitDy=0;" edge="1" parent="1" source="FDrHorXSiLE-RwHZ9RLK-101">
          <mxGeometry width="50" height="50" relative="1" as="geometry">
            <mxPoint x="2300" y="920" as="sourcePoint" />
            <mxPoint x="2650" y="877" as="targetPoint" />
          </mxGeometry>
        </mxCell>
        <mxCell id="qdUTuXBCynFa8y73pZ17-9" value="" style="endArrow=none;html=1;rounded=0;exitX=0;exitY=0.5;exitDx=0;exitDy=0;" edge="1" parent="1" source="FDrHorXSiLE-RwHZ9RLK-84">
          <mxGeometry width="50" height="50" relative="1" as="geometry">
            <mxPoint x="2300" y="1090" as="sourcePoint" />
            <mxPoint x="2190" y="1111" as="targetPoint" />
          </mxGeometry>
        </mxCell>
        <mxCell id="qdUTuXBCynFa8y73pZ17-10" value="" style="endArrow=none;html=1;rounded=0;exitX=1;exitY=0.5;exitDx=0;exitDy=0;" edge="1" parent="1" source="FDrHorXSiLE-RwHZ9RLK-84">
          <mxGeometry width="50" height="50" relative="1" as="geometry">
            <mxPoint x="2300" y="1090" as="sourcePoint" />
            <mxPoint x="2650" y="1111" as="targetPoint" />
          </mxGeometry>
        </mxCell>
        <mxCell id="qdUTuXBCynFa8y73pZ17-11" value="" style="endArrow=none;html=1;rounded=0;exitX=1;exitY=0.5;exitDx=0;exitDy=0;entryX=0;entryY=0.5;entryDx=0;entryDy=0;" edge="1" parent="1" source="FDrHorXSiLE-RwHZ9RLK-31" target="FDrHorXSiLE-RwHZ9RLK-46">
          <mxGeometry width="50" height="50" relative="1" as="geometry">
            <mxPoint x="2300" y="1250" as="sourcePoint" />
            <mxPoint x="2350" y="1200" as="targetPoint" />
          </mxGeometry>
        </mxCell>
        <mxCell id="qdUTuXBCynFa8y73pZ17-12" value="" style="endArrow=none;html=1;rounded=0;entryX=0;entryY=0.5;entryDx=0;entryDy=0;" edge="1" parent="1" target="FDrHorXSiLE-RwHZ9RLK-31">
          <mxGeometry width="50" height="50" relative="1" as="geometry">
            <mxPoint x="2190" y="1422" as="sourcePoint" />
            <mxPoint x="2350" y="1370" as="targetPoint" />
          </mxGeometry>
        </mxCell>
        <mxCell id="qdUTuXBCynFa8y73pZ17-13" value="" style="endArrow=none;html=1;rounded=0;exitX=0;exitY=0.5;exitDx=0;exitDy=0;" edge="1" parent="1" source="FDrHorXSiLE-RwHZ9RLK-74">
          <mxGeometry width="50" height="50" relative="1" as="geometry">
            <mxPoint x="2300" y="1750" as="sourcePoint" />
            <mxPoint x="2190" y="1770" as="targetPoint" />
          </mxGeometry>
        </mxCell>
        <mxCell id="qdUTuXBCynFa8y73pZ17-14" value="" style="endArrow=none;html=1;rounded=0;exitX=1;exitY=0.5;exitDx=0;exitDy=0;" edge="1" parent="1" source="FDrHorXSiLE-RwHZ9RLK-74">
          <mxGeometry width="50" height="50" relative="1" as="geometry">
            <mxPoint x="2300" y="1750" as="sourcePoint" />
            <mxPoint x="2650" y="1767" as="targetPoint" />
          </mxGeometry>
        </mxCell>
        <mxCell id="qdUTuXBCynFa8y73pZ17-15" value="" style="endArrow=none;html=1;rounded=0;entryX=0;entryY=0.5;entryDx=0;entryDy=0;" edge="1" parent="1" target="FDrHorXSiLE-RwHZ9RLK-67">
          <mxGeometry width="50" height="50" relative="1" as="geometry">
            <mxPoint x="2190" y="2001" as="sourcePoint" />
            <mxPoint x="2350" y="2040" as="targetPoint" />
          </mxGeometry>
        </mxCell>
        <mxCell id="qdUTuXBCynFa8y73pZ17-16" value="" style="endArrow=none;html=1;rounded=0;entryX=1;entryY=0.5;entryDx=0;entryDy=0;" edge="1" parent="1" target="FDrHorXSiLE-RwHZ9RLK-67">
          <mxGeometry width="50" height="50" relative="1" as="geometry">
            <mxPoint x="2650" y="2001" as="sourcePoint" />
            <mxPoint x="2350" y="2040" as="targetPoint" />
          </mxGeometry>
        </mxCell>
        <mxCell id="qdUTuXBCynFa8y73pZ17-17" value="" style="endArrow=none;html=1;rounded=0;entryX=0;entryY=0.5;entryDx=0;entryDy=0;" edge="1" parent="1" target="FDrHorXSiLE-RwHZ9RLK-59">
          <mxGeometry width="50" height="50" relative="1" as="geometry">
            <mxPoint x="2190" y="2185" as="sourcePoint" />
            <mxPoint x="2350" y="2200" as="targetPoint" />
          </mxGeometry>
        </mxCell>
        <mxCell id="qdUTuXBCynFa8y73pZ17-18" value="" style="endArrow=none;html=1;rounded=0;entryX=1;entryY=0.5;entryDx=0;entryDy=0;" edge="1" parent="1" target="FDrHorXSiLE-RwHZ9RLK-59">
          <mxGeometry width="50" height="50" relative="1" as="geometry">
            <mxPoint x="2650" y="2185" as="sourcePoint" />
            <mxPoint x="2350" y="2200" as="targetPoint" />
          </mxGeometry>
        </mxCell>
        <mxCell id="qdUTuXBCynFa8y73pZ17-19" value="" style="endArrow=none;html=1;rounded=0;exitX=0;exitY=0.5;exitDx=0;exitDy=0;" edge="1" parent="1" source="FDrHorXSiLE-RwHZ9RLK-119">
          <mxGeometry width="50" height="50" relative="1" as="geometry">
            <mxPoint x="2300" y="2250" as="sourcePoint" />
            <mxPoint x="2190" y="2381" as="targetPoint" />
          </mxGeometry>
        </mxCell>
        <mxCell id="qdUTuXBCynFa8y73pZ17-20" value="" style="endArrow=none;html=1;rounded=0;exitX=1;exitY=0.5;exitDx=0;exitDy=0;" edge="1" parent="1" source="FDrHorXSiLE-RwHZ9RLK-119">
          <mxGeometry width="50" height="50" relative="1" as="geometry">
            <mxPoint x="2300" y="2250" as="sourcePoint" />
            <mxPoint x="2650" y="2381" as="targetPoint" />
          </mxGeometry>
        </mxCell>
      </root>
    </mxGraphModel>
  </diagram>
</mxfile>
